<svg width="390" height="844" viewBox="0 0 390 844" fill="none" xmlns="http://www.w3.org/2000/svg">
<g clip-path="url(#clip0_1_2)">
<rect width="390" height="844" fill="#09090A"/>
<rect x="124.8" y="830.96" width="140.4" height="5.20001" rx="2.60001" fill="white"/>
<path d="M85 0H304C301.894 0.602689 300.418 2.49525 300.345 4.68446L300.317 5.5618C300.317 19.0587 289.375 30 275.878 30H113.122C99.6249 30 88.6835 19.0587 88.6835 5.5618L88.6545 4.68447C88.5823 2.49525 87.1059 0.602689 85 0Z" fill="#1E1E1E"/>
<path opacity="0.35" d="M351.5 22C351.5 20.8034 352.47 19.8334 353.667 19.8334H370.333C371.53 19.8334 372.5 20.8034 372.5 22V28C372.5 29.1967 371.53 30.1667 370.333 30.1667H353.667C352.47 30.1667 351.5 29.1967 351.5 28V22Z" fill="white" stroke="#1E1E1E"/>
<path opacity="0.4" d="M374 23V27C374.805 26.6613 375.328 25.8732 375.328 25C375.328 24.1269 374.805 23.3388 374 23Z" fill="white"/>
<path d="M353 22.6667C353 21.9303 353.597 21.3334 354.333 21.3334H369.667C370.403 21.3334 371 21.9303 371 22.6667V27.3334C371 28.0698 370.403 28.6667 369.667 28.6667H354.333C353.597 28.6667 353 28.0698 353 27.3334V22.6667Z" fill="white"/>
<path fill-rule="evenodd" clip-rule="evenodd" d="M338.33 21.608C340.546 21.6081 342.677 22.4596 344.283 23.9863C344.404 24.1042 344.598 24.1027 344.717 23.983L345.873 22.8163C345.933 22.7556 345.967 22.6734 345.966 22.5878C345.966 22.5022 345.931 22.4204 345.87 22.3603C341.655 18.3208 335.005 18.3208 330.79 22.3603C330.729 22.4203 330.694 22.5021 330.694 22.5877C330.693 22.6733 330.727 22.7556 330.787 22.8163L331.943 23.983C332.062 24.1029 332.256 24.1044 332.377 23.9863C333.983 22.4595 336.114 21.608 338.33 21.608ZM338.33 25.4037C339.548 25.4036 340.722 25.8561 341.624 26.6733C341.746 26.7893 341.939 26.7868 342.058 26.6677L343.212 25.501C343.273 25.4398 343.307 25.3568 343.306 25.2705C343.305 25.1843 343.27 25.102 343.208 25.042C340.459 22.4856 336.204 22.4856 333.455 25.042C333.393 25.102 333.358 25.1843 333.357 25.2706C333.356 25.3569 333.39 25.4399 333.451 25.501L334.605 26.6677C334.724 26.7868 334.917 26.7893 335.039 26.6733C335.941 25.8567 337.114 25.4042 338.33 25.4037ZM340.643 27.9575C340.645 28.044 340.611 28.1274 340.549 28.188L338.552 30.2037C338.493 30.2629 338.414 30.2963 338.33 30.2963C338.247 30.2963 338.167 30.2629 338.109 30.2037L336.111 28.188C336.049 28.1274 336.015 28.0439 336.017 27.9574C336.019 27.8709 336.056 27.789 336.121 27.731C337.396 26.6521 339.264 26.6521 340.54 27.731C340.604 27.789 340.642 27.871 340.643 27.9575Z" fill="white"/>
<path fill-rule="evenodd" clip-rule="evenodd" d="M324.667 19.6666H323.667C323.114 19.6666 322.667 20.1143 322.667 20.6666V29.3333C322.667 29.8856 323.114 30.3333 323.667 30.3333H324.667C325.219 30.3333 325.667 29.8856 325.667 29.3333V20.6666C325.667 20.1143 325.219 19.6666 324.667 19.6666ZM319 22H320C320.552 22 321 22.4477 321 23V29.3333C321 29.8856 320.552 30.3333 320 30.3333H319C318.448 30.3333 318 29.8856 318 29.3333V23C318 22.4477 318.448 22 319 22ZM315.333 24.3333H314.333C313.781 24.3333 313.333 24.781 313.333 25.3333V29.3333C313.333 29.8856 313.781 30.3333 314.333 30.3333H315.333C315.886 30.3333 316.333 29.8856 316.333 29.3333V25.3333C316.333 24.781 315.886 24.3333 315.333 24.3333ZM310.667 26.3333H309.667C309.114 26.3333 308.667 26.781 308.667 27.3333V29.3333C308.667 29.8856 309.114 30.3333 309.667 30.3333H310.667C311.219 30.3333 311.667 29.8856 311.667 29.3333V27.3333C311.667 26.781 311.219 26.3333 310.667 26.3333Z" fill="white"/>
<path d="M37.3207 30.2563C40.0087 30.2563 41.6053 28.1543 41.6053 24.5947C41.6053 23.2544 41.349 22.1265 40.8583 21.2549C40.1478 19.8999 38.9247 19.1675 37.3793 19.1675C35.0795 19.1675 33.4535 20.7129 33.4535 22.8809C33.4535 24.917 34.9183 26.3965 36.9325 26.3965C38.1703 26.3965 39.1737 25.8179 39.6718 24.8145H39.6937C39.6937 24.8145 39.723 24.8145 39.7303 24.8145C39.745 24.8145 39.7963 24.8145 39.7963 24.8145C39.7963 27.2314 38.8807 28.6743 37.3353 28.6743C36.4271 28.6743 35.724 28.1763 35.4823 27.3779H33.6C33.9149 29.1138 35.3871 30.2563 37.3207 30.2563ZM37.3866 24.895C36.1708 24.895 35.3065 24.0308 35.3065 22.8223C35.3065 21.6431 36.2147 20.7422 37.3939 20.7422C38.5731 20.7422 39.4813 21.6577 39.4813 22.8516C39.4813 24.0308 38.5951 24.895 37.3866 24.895Z" fill="white"/>
<path d="M44.6965 30.1538C45.3923 30.1538 45.8683 29.6558 45.8683 28.9966C45.8683 28.3301 45.3923 27.8394 44.6965 27.8394C44.008 27.8394 43.5246 28.3301 43.5246 28.9966C43.5246 29.6558 44.008 30.1538 44.6965 30.1538ZM44.6965 24.6606C45.3923 24.6606 45.8683 24.1699 45.8683 23.5107C45.8683 22.8442 45.3923 22.3535 44.6965 22.3535C44.008 22.3535 43.5246 22.8442 43.5246 23.5107C43.5246 24.1699 44.008 24.6606 44.6965 24.6606Z" fill="white"/>
<path d="M52.7241 30H54.5332V28.0298H55.9614V26.4331H54.5332V19.4312H51.8672C49.9995 22.2437 48.5127 24.5947 47.5605 26.3452V28.0298H52.7241V30ZM49.311 26.3672C50.5415 24.1992 51.6401 22.4634 52.6509 20.9692H52.7534V26.4771H49.311V26.3672Z" fill="white"/>
<path d="M59.99 30H61.8797V19.4312H59.9973L57.2361 21.3647V23.1812L59.8655 21.3354H59.99V30Z" fill="white"/>
<rect x="33" y="245" width="38" height="38" rx="7" fill="#4C1D95" stroke="#6D28D9" stroke-width="2"/>
<rect x="80.6667" y="245" width="38" height="38" rx="7" fill="#18181B" stroke="#27272A" stroke-width="2"/>
<rect x="128.333" y="245" width="38" height="38" rx="7" fill="#6D28D9" stroke="#8B5CF6" stroke-width="2"/>
<rect x="176" y="245" width="38" height="38" rx="7" fill="#7C3AED" stroke="#8B5CF6" stroke-width="2"/>
<rect x="223.667" y="245" width="38" height="38" rx="7" fill="#8B5CF6" stroke="#A78BFA" stroke-width="2"/>
<rect x="271.333" y="245" width="38" height="38" rx="7" fill="#7C3AED" stroke="#8B5CF6" stroke-width="2"/>
<rect x="319" y="245" width="38" height="38" rx="7" fill="#8B5CF6" stroke="#A78BFA" stroke-width="2"/>
<rect x="33" y="293" width="38" height="38" rx="7" fill="#4C1D95" stroke="#6D28D9" stroke-width="2"/>
<rect x="80.6667" y="293" width="38" height="38" rx="7" fill="#5B21B6" stroke="#7C3AED" stroke-width="2"/>
<rect x="128.333" y="293" width="38" height="38" rx="7" fill="#18181B" stroke="#27272A" stroke-width="2"/>
<rect x="176" y="293" width="38" height="38" rx="7" fill="#7C3AED" stroke="#8B5CF6" stroke-width="2"/>
<rect x="223.667" y="293" width="38" height="38" rx="7" fill="#8B5CF6" stroke="#A78BFA" stroke-width="2"/>
<rect x="271.333" y="293" width="38" height="38" rx="7" fill="#7C3AED" stroke="#8B5CF6" stroke-width="2"/>
<rect x="319" y="293" width="38" height="38" rx="7" fill="#8B5CF6" stroke="#A78BFA" stroke-width="2"/>
<rect x="33" y="341" width="38" height="38" rx="7" fill="#18181B" stroke="#27272A" stroke-width="2"/>
<rect x="80.6667" y="341" width="38" height="38" rx="7" fill="#5B21B6" stroke="#7C3AED" stroke-width="2"/>
<rect x="128.333" y="341" width="38" height="38" rx="7" fill="#6D28D9" stroke="#8B5CF6" stroke-width="2"/>
<rect x="176" y="341" width="38" height="38" rx="7" fill="#7C3AED" stroke="#8B5CF6" stroke-width="2"/>
<rect x="223.667" y="341" width="38" height="38" rx="7" fill="#8B5CF6" stroke="#A78BFA" stroke-width="2"/>
<rect x="271.333" y="341" width="38" height="38" rx="7" fill="#18181B" stroke="#27272A" stroke-width="2"/>
<rect x="319" y="341" width="38" height="38" rx="7" fill="#8B5CF6" stroke="#A78BFA" stroke-width="2"/>
<rect x="33" y="389" width="38" height="38" rx="7" fill="#4C1D95" stroke="#6D28D9" stroke-width="2"/>
<rect x="80.6667" y="389" width="38" height="38" rx="7" fill="#5B21B6" stroke="#7C3AED" stroke-width="2"/>
<rect x="128.333" y="389" width="38" height="38" rx="7" fill="#6D28D9" stroke="#8B5CF6" stroke-width="2"/>
<rect x="176" y="389" width="38" height="38" rx="7" fill="#18181B" stroke="#27272A" stroke-width="2"/>
<rect x="223.667" y="389" width="38" height="38" rx="7" fill="#18181B" stroke="#27272A" stroke-width="2"/>
<rect x="271.333" y="389" width="38" height="38" rx="7" fill="#7C3AED" stroke="#8B5CF6" stroke-width="2"/>
<rect x="319" y="389" width="38" height="38" rx="7" fill="#8B5CF6" stroke="#A78BFA" stroke-width="2"/>
<rect x="33" y="437" width="38" height="38" rx="7" fill="#4C1D95" stroke="#6D28D9" stroke-width="2"/>
<rect x="80.6667" y="437" width="38" height="38" rx="7" fill="#18181B" stroke="#27272A" stroke-width="2"/>
<rect x="128.333" y="437" width="38" height="38" rx="7" fill="#6D28D9" stroke="#8B5CF6" stroke-width="2"/>
<rect x="176" y="437" width="38" height="38" rx="7" fill="#7C3AED" stroke="#8B5CF6" stroke-width="2"/>
<rect x="223.667" y="437" width="38" height="38" rx="7" fill="#18181B" stroke="#27272A" stroke-width="2"/>
<rect x="271.333" y="437" width="38" height="38" rx="7" fill="#18181B" stroke="#27272A" stroke-width="2"/>
<rect x="319" y="437" width="38" height="38" rx="7" fill="#8B5CF6" stroke="#A78BFA" stroke-width="2"/>
<rect x="33" y="485" width="38" height="38" rx="7" fill="#7C3AED" stroke="#8B5CF6" stroke-width="2"/>
<rect x="80.5" y="485" width="38" height="38" rx="7" fill="#18181B" stroke="#27272A" stroke-width="2"/>
<rect x="128" y="485" width="38" height="38" rx="7" fill="#18181B" stroke="#27272A" stroke-width="2"/>
<rect x="176.5" y="486" width="36" height="36" rx="6" fill="#18181B" stroke="white" stroke-width="4"/>
<path d="M51.1451 223H45.9888V208.455H51.1877C52.6507 208.455 53.9102 208.746 54.9661 209.328C56.022 209.906 56.834 210.737 57.4022 211.821C57.9751 212.905 58.2615 214.203 58.2615 215.713C58.2615 217.228 57.9751 218.53 57.4022 219.619C56.834 220.708 56.0172 221.544 54.9519 222.126C53.8913 222.709 52.6223 223 51.1451 223ZM49.0641 220.365H51.0172C51.9263 220.365 52.691 220.204 53.3113 219.882C53.9363 219.555 54.405 219.051 54.7175 218.369C55.0347 217.683 55.1934 216.797 55.1934 215.713C55.1934 214.638 55.0347 213.76 54.7175 213.078C54.405 212.396 53.9386 211.894 53.3184 211.572C52.6981 211.25 51.9334 211.089 51.0243 211.089H49.0641V220.365Z" fill="#A1A1AA"/>
<path d="M102.269 212.638C102.212 212.065 101.968 211.62 101.537 211.303C101.106 210.985 100.522 210.827 99.783 210.827C99.2811 210.827 98.8573 210.898 98.5117 211.04C98.166 211.177 97.9009 211.369 97.7162 211.615C97.5363 211.861 97.4463 212.141 97.4463 212.453C97.4369 212.714 97.4913 212.941 97.6097 213.135C97.7328 213.329 97.9009 213.497 98.114 213.639C98.327 213.777 98.5732 213.897 98.8526 214.001C99.1319 214.101 99.4302 214.186 99.7475 214.257L101.054 214.57C101.689 214.712 102.271 214.901 102.801 215.138C103.332 215.375 103.791 215.666 104.179 216.011C104.568 216.357 104.868 216.764 105.081 217.233C105.299 217.702 105.41 218.239 105.415 218.845C105.41 219.735 105.183 220.507 104.733 221.161C104.288 221.809 103.644 222.313 102.801 222.673C101.963 223.028 100.952 223.206 99.7688 223.206C98.5945 223.206 97.5718 223.026 96.7006 222.666C95.8341 222.306 95.157 221.774 94.6694 221.068C94.1864 220.358 93.9331 219.48 93.9094 218.433H96.8853C96.9184 218.921 97.0581 219.328 97.3043 219.655C97.5552 219.977 97.889 220.221 98.3057 220.386C98.7271 220.547 99.203 220.628 99.7333 220.628C100.254 220.628 100.706 220.552 101.09 220.401C101.478 220.249 101.779 220.038 101.992 219.768C102.205 219.499 102.311 219.188 102.311 218.838C102.311 218.511 102.214 218.237 102.02 218.014C101.831 217.792 101.551 217.602 101.182 217.446C100.818 217.29 100.37 217.148 99.8398 217.02L98.256 216.622C97.0297 216.324 96.0614 215.857 95.3512 215.223C94.6409 214.589 94.2882 213.734 94.2929 212.659C94.2882 211.778 94.5226 211.009 94.9961 210.351C95.4743 209.693 96.1301 209.179 96.9634 208.81C97.7967 208.44 98.7437 208.256 99.8043 208.256C100.884 208.256 101.826 208.44 102.631 208.81C103.441 209.179 104.07 209.693 104.52 210.351C104.97 211.009 105.202 211.771 105.216 212.638H102.269Z" fill="#A1A1AA"/>
<path d="M141.364 210.99V208.455H153.31V210.99H148.857V223H145.817V210.99H141.364Z" fill="#A1A1AA"/>
<path d="M193.932 217.943H196.546L197.86 219.634L199.152 221.139L201.588 224.193H198.719L197.043 222.134L196.183 220.912L193.932 217.943ZM201.808 215.727C201.808 217.313 201.508 218.663 200.906 219.776C200.31 220.888 199.495 221.738 198.463 222.325C197.436 222.908 196.28 223.199 194.997 223.199C193.705 223.199 192.545 222.905 191.517 222.318C190.49 221.731 189.678 220.881 189.081 219.768C188.485 218.656 188.186 217.309 188.186 215.727C188.186 214.141 188.485 212.792 189.081 211.679C189.678 210.566 190.49 209.719 191.517 209.136C192.545 208.549 193.705 208.256 194.997 208.256C196.28 208.256 197.436 208.549 198.463 209.136C199.495 209.719 200.31 210.566 200.906 211.679C201.508 212.792 201.808 214.141 201.808 215.727ZM198.691 215.727C198.691 214.7 198.537 213.833 198.229 213.128C197.926 212.422 197.497 211.887 196.943 211.523C196.389 211.158 195.741 210.976 194.997 210.976C194.254 210.976 193.605 211.158 193.051 211.523C192.497 211.887 192.066 212.422 191.759 213.128C191.456 213.833 191.304 214.7 191.304 215.727C191.304 216.755 191.456 217.621 191.759 218.327C192.066 219.032 192.497 219.567 193.051 219.932C193.605 220.296 194.254 220.479 194.997 220.479C195.741 220.479 196.389 220.296 196.943 219.932C197.497 219.567 197.926 219.032 198.229 218.327C198.537 217.621 198.691 216.755 198.691 215.727Z" fill="#A1A1AA"/>
<path d="M241.599 217.943H244.212L245.526 219.634L246.819 221.139L249.255 224.193H246.386L244.709 222.134L243.85 220.912L241.599 217.943ZM249.475 215.727C249.475 217.313 249.174 218.663 248.573 219.776C247.977 220.888 247.162 221.738 246.13 222.325C245.102 222.908 243.947 223.199 242.664 223.199C241.371 223.199 240.211 222.905 239.184 222.318C238.156 221.731 237.344 220.881 236.748 219.768C236.151 218.656 235.853 217.309 235.853 215.727C235.853 214.141 236.151 212.792 236.748 211.679C237.344 210.566 238.156 209.719 239.184 209.136C240.211 208.549 241.371 208.256 242.664 208.256C243.947 208.256 245.102 208.549 246.13 209.136C247.162 209.719 247.977 210.566 248.573 211.679C249.174 212.792 249.475 214.141 249.475 215.727ZM246.357 215.727C246.357 214.7 246.203 213.833 245.896 213.128C245.593 212.422 245.164 211.887 244.61 211.523C244.056 211.158 243.407 210.976 242.664 210.976C241.921 210.976 241.272 211.158 240.718 211.523C240.164 211.887 239.733 212.422 239.425 213.128C239.122 213.833 238.971 214.7 238.971 215.727C238.971 216.755 239.122 217.621 239.425 218.327C239.733 219.032 240.164 219.567 240.718 219.932C241.272 220.296 241.921 220.479 242.664 220.479C243.407 220.479 244.056 220.296 244.61 219.932C245.164 219.567 245.593 219.032 245.896 218.327C246.203 217.621 246.357 216.755 246.357 215.727Z" fill="#A1A1AA"/>
<path d="M292.935 212.638C292.879 212.065 292.635 211.62 292.204 211.303C291.773 210.985 291.188 210.827 290.45 210.827C289.948 210.827 289.524 210.898 289.178 211.04C288.833 211.177 288.568 211.369 288.383 211.615C288.203 211.861 288.113 212.141 288.113 212.453C288.104 212.714 288.158 212.941 288.276 213.135C288.399 213.329 288.568 213.497 288.781 213.639C288.994 213.777 289.24 213.897 289.519 214.001C289.799 214.101 290.097 214.186 290.414 214.257L291.721 214.57C292.355 214.712 292.938 214.901 293.468 215.138C293.998 215.375 294.458 215.666 294.846 216.011C295.234 216.357 295.535 216.764 295.748 217.233C295.966 217.702 296.077 218.239 296.082 218.845C296.077 219.735 295.85 220.507 295.4 221.161C294.955 221.809 294.311 222.313 293.468 222.673C292.63 223.028 291.619 223.206 290.435 223.206C289.261 223.206 288.238 223.026 287.367 222.666C286.501 222.306 285.824 221.774 285.336 221.068C284.853 220.358 284.6 219.48 284.576 218.433H287.552C287.585 218.921 287.725 219.328 287.971 219.655C288.222 219.977 288.556 220.221 288.972 220.386C289.394 220.547 289.87 220.628 290.4 220.628C290.921 220.628 291.373 220.552 291.756 220.401C292.145 220.249 292.445 220.038 292.658 219.768C292.872 219.499 292.978 219.188 292.978 218.838C292.978 218.511 292.881 218.237 292.687 218.014C292.497 217.792 292.218 217.602 291.849 217.446C291.484 217.29 291.037 217.148 290.506 217.02L288.923 216.622C287.696 216.324 286.728 215.857 286.018 215.223C285.308 214.589 284.955 213.734 284.96 212.659C284.955 211.778 285.189 211.009 285.663 210.351C286.141 209.693 286.797 209.179 287.63 208.81C288.463 208.44 289.41 208.256 290.471 208.256C291.55 208.256 292.493 208.44 293.298 208.81C294.107 209.179 294.737 209.693 295.187 210.351C295.637 211.009 295.869 211.771 295.883 212.638H292.935Z" fill="#A1A1AA"/>
<path d="M340.602 212.638C340.545 212.065 340.301 211.62 339.871 211.303C339.44 210.985 338.855 210.827 338.116 210.827C337.614 210.827 337.191 210.898 336.845 211.04C336.499 211.177 336.234 211.369 336.05 211.615C335.87 211.861 335.78 212.141 335.78 212.453C335.77 212.714 335.825 212.941 335.943 213.135C336.066 213.329 336.234 213.497 336.447 213.639C336.66 213.777 336.907 213.897 337.186 214.001C337.465 214.101 337.764 214.186 338.081 214.257L339.388 214.57C340.022 214.712 340.604 214.901 341.135 215.138C341.665 215.375 342.124 215.666 342.513 216.011C342.901 216.357 343.202 216.764 343.415 217.233C343.632 217.702 343.744 218.239 343.748 218.845C343.744 219.735 343.516 220.507 343.067 221.161C342.622 221.809 341.978 222.313 341.135 222.673C340.297 223.028 339.286 223.206 338.102 223.206C336.928 223.206 335.905 223.026 335.034 222.666C334.167 222.306 333.49 221.774 333.003 221.068C332.52 220.358 332.266 219.48 332.243 218.433H335.219C335.252 218.921 335.391 219.328 335.638 219.655C335.889 219.977 336.222 220.221 336.639 220.386C337.06 220.547 337.536 220.628 338.067 220.628C338.587 220.628 339.04 220.552 339.423 220.401C339.811 220.249 340.112 220.038 340.325 219.768C340.538 219.499 340.645 219.188 340.645 218.838C340.645 218.511 340.548 218.237 340.354 218.014C340.164 217.792 339.885 217.602 339.515 217.446C339.151 217.29 338.703 217.148 338.173 217.02L336.589 216.622C335.363 216.324 334.395 215.857 333.684 215.223C332.974 214.589 332.622 213.734 332.626 212.659C332.622 211.778 332.856 211.009 333.329 210.351C333.808 209.693 334.463 209.179 335.297 208.81C336.13 208.44 337.077 208.256 338.138 208.256C339.217 208.256 340.159 208.44 340.964 208.81C341.774 209.179 342.404 209.693 342.854 210.351C343.303 211.009 343.535 211.771 343.55 212.638H340.602Z" fill="#A1A1AA"/>
<path d="M39.3182 154.045V164H33.7614V140.727H39.1364V149.75H39.3295C39.7235 148.674 40.3674 147.833 41.2614 147.227C42.1629 146.621 43.2652 146.318 44.5682 146.318C45.7955 146.318 46.8636 146.591 47.7727 147.136C48.6818 147.674 49.3864 148.436 49.8864 149.42C50.3939 150.405 50.6439 151.557 50.6364 152.875V164H45.0795V153.966C45.0871 152.996 44.8447 152.239 44.3523 151.693C43.8598 151.148 43.1667 150.875 42.2727 150.875C41.6894 150.875 41.1742 151.004 40.7273 151.261C40.2879 151.511 39.9432 151.871 39.6932 152.341C39.4508 152.811 39.3258 153.379 39.3182 154.045ZM59.0256 164.295C57.9119 164.295 56.9233 164.11 56.0597 163.739C55.2036 163.36 54.5256 162.792 54.0256 162.034C53.5331 161.269 53.2869 160.311 53.2869 159.159C53.2869 158.189 53.4574 157.371 53.7983 156.705C54.1392 156.038 54.6089 155.496 55.2074 155.08C55.8059 154.663 56.4953 154.348 57.2756 154.136C58.0559 153.917 58.8892 153.769 59.7756 153.693C60.768 153.602 61.5672 153.508 62.1733 153.409C62.7794 153.303 63.2188 153.155 63.4915 152.966C63.7718 152.769 63.9119 152.492 63.9119 152.136V152.08C63.9119 151.496 63.7112 151.045 63.3097 150.727C62.9081 150.409 62.3665 150.25 61.6847 150.25C60.9498 150.25 60.3589 150.409 59.9119 150.727C59.465 151.045 59.1809 151.485 59.0597 152.045L53.9347 151.864C54.0862 150.803 54.4763 149.856 55.1051 149.023C55.7415 148.182 56.6127 147.523 57.7188 147.045C58.8324 146.561 60.1695 146.318 61.7301 146.318C62.8438 146.318 63.8703 146.451 64.8097 146.716C65.7491 146.973 66.5672 147.352 67.2642 147.852C67.9612 148.345 68.4991 148.951 68.8778 149.67C69.2642 150.39 69.4574 151.212 69.4574 152.136V164H64.2301V161.568H64.0938C63.7831 162.159 63.3854 162.659 62.9006 163.068C62.4233 163.477 61.8589 163.784 61.2074 163.989C60.5634 164.193 59.8362 164.295 59.0256 164.295ZM60.7415 160.659C61.34 160.659 61.8778 160.538 62.3551 160.295C62.84 160.053 63.2263 159.72 63.5142 159.295C63.8021 158.864 63.946 158.364 63.946 157.795V156.136C63.7869 156.22 63.5938 156.295 63.3665 156.364C63.1468 156.432 62.9044 156.496 62.6392 156.557C62.3741 156.617 62.1013 156.67 61.821 156.716C61.5407 156.761 61.2718 156.803 61.0142 156.841C60.4915 156.924 60.0445 157.053 59.6733 157.227C59.3097 157.402 59.0294 157.629 58.8324 157.909C58.643 158.182 58.5483 158.508 58.5483 158.886C58.5483 159.462 58.7528 159.902 59.1619 160.205C59.5786 160.508 60.1051 160.659 60.7415 160.659ZM72.8551 164V140.727H78.4119V149.534H78.5256C78.7528 149.004 79.0748 148.492 79.4915 148C79.9157 147.508 80.4536 147.106 81.1051 146.795C81.7642 146.477 82.5521 146.318 83.4688 146.318C84.6809 146.318 85.8134 146.636 86.8665 147.273C87.9271 147.909 88.7831 148.89 89.4347 150.216C90.0862 151.542 90.4119 153.231 90.4119 155.284C90.4119 157.261 90.0975 158.917 89.4688 160.25C88.8475 161.583 88.0066 162.583 86.946 163.25C85.893 163.917 84.7225 164.25 83.4347 164.25C82.5559 164.25 81.7945 164.106 81.1506 163.818C80.5066 163.53 79.965 163.152 79.5256 162.682C79.0938 162.212 78.7604 161.708 78.5256 161.17H78.3551V164H72.8551ZM78.2983 155.273C78.2983 156.212 78.4233 157.03 78.6733 157.727C78.9309 158.424 79.2983 158.966 79.7756 159.352C80.2604 159.731 80.84 159.92 81.5142 159.92C82.196 159.92 82.7756 159.731 83.2528 159.352C83.7301 158.966 84.09 158.424 84.3324 157.727C84.5824 157.03 84.7074 156.212 84.7074 155.273C84.7074 154.333 84.5824 153.519 84.3324 152.83C84.09 152.14 83.7301 151.606 83.2528 151.227C82.7831 150.848 82.2036 150.659 81.5142 150.659C80.8324 150.659 80.2528 150.845 79.7756 151.216C79.2983 151.587 78.9309 152.117 78.6733 152.807C78.4233 153.496 78.2983 154.318 78.2983 155.273ZM93.3239 164V146.545H98.8807V164H93.3239ZM96.108 144.511C95.3277 144.511 94.6572 144.254 94.0966 143.739C93.536 143.216 93.2557 142.587 93.2557 141.852C93.2557 141.125 93.536 140.504 94.0966 139.989C94.6572 139.466 95.3277 139.205 96.108 139.205C96.8958 139.205 97.5663 139.466 98.1193 139.989C98.6799 140.504 98.9602 141.125 98.9602 141.852C98.9602 142.587 98.6799 143.216 98.1193 143.739C97.5663 144.254 96.8958 144.511 96.108 144.511ZM112.27 146.545V150.636H101.259V146.545H112.27ZM103.565 142.364H109.122V158.511C109.122 158.852 109.175 159.129 109.281 159.341C109.395 159.545 109.558 159.693 109.77 159.784C109.982 159.867 110.236 159.909 110.531 159.909C110.743 159.909 110.967 159.89 111.202 159.852C111.444 159.807 111.626 159.769 111.747 159.739L112.588 163.75C112.323 163.826 111.948 163.92 111.463 164.034C110.986 164.148 110.414 164.22 109.747 164.25C108.444 164.311 107.327 164.159 106.395 163.795C105.471 163.424 104.762 162.848 104.27 162.068C103.785 161.288 103.55 160.307 103.565 159.125V142.364ZM130.125 151.875L125.023 152.011C124.97 151.648 124.826 151.326 124.591 151.045C124.356 150.758 124.049 150.534 123.67 150.375C123.299 150.208 122.867 150.125 122.375 150.125C121.731 150.125 121.182 150.254 120.727 150.511C120.28 150.769 120.061 151.117 120.068 151.557C120.061 151.898 120.197 152.193 120.477 152.443C120.765 152.693 121.277 152.894 122.011 153.045L125.375 153.682C127.117 154.015 128.413 154.568 129.261 155.341C130.117 156.114 130.549 157.136 130.557 158.409C130.549 159.606 130.193 160.648 129.489 161.534C128.792 162.42 127.837 163.11 126.625 163.602C125.413 164.087 124.027 164.33 122.466 164.33C119.973 164.33 118.008 163.818 116.568 162.795C115.136 161.765 114.318 160.386 114.114 158.659L119.602 158.523C119.723 159.159 120.038 159.644 120.545 159.977C121.053 160.311 121.701 160.477 122.489 160.477C123.201 160.477 123.78 160.345 124.227 160.08C124.674 159.814 124.902 159.462 124.909 159.023C124.902 158.629 124.727 158.314 124.386 158.08C124.045 157.837 123.511 157.648 122.784 157.511L119.739 156.932C117.989 156.614 116.686 156.027 115.83 155.17C114.973 154.307 114.549 153.208 114.557 151.875C114.549 150.708 114.86 149.712 115.489 148.886C116.117 148.053 117.011 147.417 118.17 146.977C119.33 146.538 120.697 146.318 122.273 146.318C124.636 146.318 126.5 146.814 127.864 147.807C129.227 148.792 129.981 150.148 130.125 151.875Z" fill="white"/>
<rect x="32.5" y="108.5" width="15" height="15" rx="3.5" fill="#18181B" stroke="#27272A"/>
<rect x="52.5" y="108.5" width="15" height="15" rx="3.5" fill="#4C1D95" stroke="#6D28D9"/>
<rect x="72.5" y="108.5" width="15" height="15" rx="3.5" fill="#5B21B6" stroke="#7C3AED"/>
<rect x="92.5" y="108.5" width="15" height="15" rx="3.5" fill="#6D28D9" stroke="#8B5CF6"/>
<rect x="112.5" y="108.5" width="15" height="15" rx="3.5" fill="#7C3AED" stroke="#A78BFA"/>
<rect x="132.5" y="108.5" width="15" height="15" rx="3.5" fill="#8B5CF6" stroke="#C4B5FD"/>
<path d="M273.125 140H286.875" stroke="#8B5CF6" stroke-width="1.88" stroke-linecap="round" stroke-linejoin="round"/>
<path d="M280 133.125V146.875" stroke="#8B5CF6" stroke-width="1.88" stroke-linecap="round" stroke-linejoin="round"/>
<path d="M312.71 134.364V146H310.835L305.352 138.074H305.256V146H303.148V134.364H305.034L310.511 142.295H310.614V134.364H312.71ZM318.723 146.17C317.871 146.17 317.132 145.983 316.507 145.608C315.882 145.233 315.397 144.708 315.053 144.034C314.712 143.36 314.541 142.572 314.541 141.67C314.541 140.769 314.712 139.979 315.053 139.301C315.397 138.623 315.882 138.097 316.507 137.722C317.132 137.347 317.871 137.159 318.723 137.159C319.575 137.159 320.314 137.347 320.939 137.722C321.564 138.097 322.047 138.623 322.388 139.301C322.732 139.979 322.905 140.769 322.905 141.67C322.905 142.572 322.732 143.36 322.388 144.034C322.047 144.708 321.564 145.233 320.939 145.608C320.314 145.983 319.575 146.17 318.723 146.17ZM318.734 144.523C319.196 144.523 319.583 144.396 319.893 144.142C320.204 143.884 320.435 143.54 320.587 143.108C320.742 142.676 320.82 142.195 320.82 141.665C320.82 141.131 320.742 140.648 320.587 140.216C320.435 139.78 320.204 139.434 319.893 139.176C319.583 138.919 319.196 138.79 318.734 138.79C318.261 138.79 317.867 138.919 317.553 139.176C317.242 139.434 317.009 139.78 316.854 140.216C316.702 140.648 316.626 141.131 316.626 141.665C316.626 142.195 316.702 142.676 316.854 143.108C317.009 143.54 317.242 143.884 317.553 144.142C317.867 144.396 318.261 144.523 318.734 144.523ZM332.149 137.273L329.041 146H326.768L323.661 137.273H325.854L327.859 143.756H327.95L329.962 137.273H332.149ZM337.082 146.17C336.23 146.17 335.491 145.983 334.866 145.608C334.241 145.233 333.757 144.708 333.412 144.034C333.071 143.36 332.901 142.572 332.901 141.67C332.901 140.769 333.071 139.979 333.412 139.301C333.757 138.623 334.241 138.097 334.866 137.722C335.491 137.347 336.23 137.159 337.082 137.159C337.935 137.159 338.673 137.347 339.298 137.722C339.923 138.097 340.406 138.623 340.747 139.301C341.092 139.979 341.264 140.769 341.264 141.67C341.264 142.572 341.092 143.36 340.747 144.034C340.406 144.708 339.923 145.233 339.298 145.608C338.673 145.983 337.935 146.17 337.082 146.17ZM337.094 144.523C337.556 144.523 337.942 144.396 338.253 144.142C338.563 143.884 338.795 143.54 338.946 143.108C339.101 142.676 339.179 142.195 339.179 141.665C339.179 141.131 339.101 140.648 338.946 140.216C338.795 139.78 338.563 139.434 338.253 139.176C337.942 138.919 337.556 138.79 337.094 138.79C336.62 138.79 336.226 138.919 335.912 139.176C335.601 139.434 335.368 139.78 335.213 140.216C335.062 140.648 334.986 141.131 334.986 141.665C334.986 142.195 335.062 142.676 335.213 143.108C335.368 143.54 335.601 143.884 335.912 144.142C336.226 144.396 336.62 144.523 337.094 144.523Z" fill="white"/>
<rect x="254.5" y="118.5" width="103" height="43" rx="7.5" stroke="#8B5CF6"/>
</g>
<defs>
<clipPath id="clip0_1_2">
<rect width="390" height="844" fill="white"/>
</clipPath>
</defs>
</svg>
